<mxfile modified="2022-01-27T19:28:51.288Z" host="app.diagrams.net" agent="5.0 (Windows NT 10.0; Win64; x64) AppleWebKit/537.36 (KHTML, like Gecko) Chrome/97.0.4692.99 Safari/537.36" etag="g1hnTj1ltCOS9ZU8bSLy" version="16.4.7" type="github">
  <diagram id="Ht1M8jgEwFfnCIfOTk4-" name="Page-1">
    <mxGraphModel dx="1422" dy="794" grid="1" gridSize="10" guides="1" tooltips="1" connect="1" arrows="1" fold="1" page="1" pageScale="1" pageWidth="1169" pageHeight="827" math="0" shadow="0">
      <root>
        <mxCell id="0" />
        <mxCell id="1" parent="0" />
        <mxCell id="UEzPUAAOIrF-is8g5C7q-136" style="edgeStyle=orthogonalEdgeStyle;rounded=0;orthogonalLoop=1;jettySize=auto;html=1;startArrow=open;startFill=0;endArrow=none;endFill=0;strokeWidth=2;strokeColor=#808080;" parent="1" edge="1">
          <mxGeometry relative="1" as="geometry">
            <Array as="points">
              <mxPoint x="230" y="580" />
              <mxPoint x="740" y="580" />
            </Array>
            <mxPoint x="230" y="620" as="sourcePoint" />
            <mxPoint x="740" y="620" as="targetPoint" />
          </mxGeometry>
        </mxCell>
        <mxCell id="ZFSTA58CFG1UwtmZaYwO-1" value="AWS Lambda" style="outlineConnect=0;fontColor=#232F3E;gradientColor=none;fillColor=#B9E0A5;strokeColor=none;dashed=0;verticalLabelPosition=bottom;verticalAlign=top;align=center;fontSize=12;fontStyle=0;aspect=fixed;pointerEvents=1;shape=mxgraph.aws4.lambda_function;labelBackgroundColor=#ffffff;html=1;" vertex="1" parent="1">
          <mxGeometry x="360" y="631.5" width="78" height="78" as="geometry" />
        </mxCell>
        <mxCell id="ZFSTA58CFG1UwtmZaYwO-4" value="Amazon S3" style="outlineConnect=0;gradientDirection=north;dashed=0;verticalLabelPosition=bottom;verticalAlign=top;align=center;html=1;fontSize=12;fontStyle=0;aspect=fixed;shape=mxgraph.aws4.resourceIcon;resIcon=mxgraph.aws4.s3;labelBackgroundColor=#ffffff;fillColor=#B9E0A5;" vertex="1" parent="1">
          <mxGeometry x="190.00000000000023" y="631.5" width="78" height="78" as="geometry" />
        </mxCell>
        <mxCell id="ZFSTA58CFG1UwtmZaYwO-5" value="AWS Textract" style="sketch=0;points=[[0,0,0],[0.25,0,0],[0.5,0,0],[0.75,0,0],[1,0,0],[0,1,0],[0.25,1,0],[0.5,1,0],[0.75,1,0],[1,1,0],[0,0.25,0],[0,0.5,0],[0,0.75,0],[1,0.25,0],[1,0.5,0],[1,0.75,0]];outlineConnect=0;fontColor=#232F3E;gradientColor=none;gradientDirection=north;fillColor=#B9E0A5;strokeColor=#ffffff;dashed=0;verticalLabelPosition=bottom;verticalAlign=top;align=center;html=1;fontSize=12;fontStyle=0;aspect=fixed;shape=mxgraph.aws4.resourceIcon;resIcon=mxgraph.aws4.textract;" vertex="1" parent="1">
          <mxGeometry x="530" y="631.5" width="78" height="78" as="geometry" />
        </mxCell>
        <mxCell id="ZFSTA58CFG1UwtmZaYwO-10" value="" style="endArrow=classic;html=1;rounded=0;fontFamily=Verdana;" edge="1" parent="1" target="ZFSTA58CFG1UwtmZaYwO-1">
          <mxGeometry width="50" height="50" relative="1" as="geometry">
            <mxPoint x="270" y="671" as="sourcePoint" />
            <mxPoint x="360" y="610" as="targetPoint" />
          </mxGeometry>
        </mxCell>
        <mxCell id="ZFSTA58CFG1UwtmZaYwO-11" value="" style="endArrow=classic;html=1;rounded=0;fontFamily=Verdana;" edge="1" parent="1">
          <mxGeometry width="50" height="50" relative="1" as="geometry">
            <mxPoint x="438" y="670.38" as="sourcePoint" />
            <mxPoint x="530" y="670" as="targetPoint" />
          </mxGeometry>
        </mxCell>
        <mxCell id="ZFSTA58CFG1UwtmZaYwO-12" value="AWS Comprehend" style="sketch=0;points=[[0,0,0],[0.25,0,0],[0.5,0,0],[0.75,0,0],[1,0,0],[0,1,0],[0.25,1,0],[0.5,1,0],[0.75,1,0],[1,1,0],[0,0.25,0],[0,0.5,0],[0,0.75,0],[1,0.25,0],[1,0.5,0],[1,0.75,0]];outlineConnect=0;fontColor=#232F3E;gradientColor=none;gradientDirection=north;fillColor=#B9E0A5;strokeColor=#ffffff;dashed=0;verticalLabelPosition=bottom;verticalAlign=top;align=center;html=1;fontSize=12;fontStyle=0;aspect=fixed;shape=mxgraph.aws4.resourceIcon;resIcon=mxgraph.aws4.comprehend;fontFamily=Helvetica;" vertex="1" parent="1">
          <mxGeometry x="700" y="631.5" width="78" height="78" as="geometry" />
        </mxCell>
        <mxCell id="ZFSTA58CFG1UwtmZaYwO-13" value="Me" style="sketch=0;outlineConnect=0;fontColor=#232F3E;gradientColor=none;fillColor=#232F3D;strokeColor=none;dashed=0;verticalLabelPosition=bottom;verticalAlign=top;align=center;html=1;fontSize=12;fontStyle=0;aspect=fixed;pointerEvents=1;shape=mxgraph.aws4.user;fontFamily=Helvetica;" vertex="1" parent="1">
          <mxGeometry x="20" y="632" width="78" height="78" as="geometry" />
        </mxCell>
        <mxCell id="ZFSTA58CFG1UwtmZaYwO-14" value="" style="endArrow=classic;html=1;rounded=0;fontFamily=Verdana;" edge="1" parent="1">
          <mxGeometry width="50" height="50" relative="1" as="geometry">
            <mxPoint x="608" y="670.8800000000001" as="sourcePoint" />
            <mxPoint x="700" y="670.5" as="targetPoint" />
          </mxGeometry>
        </mxCell>
        <mxCell id="ZFSTA58CFG1UwtmZaYwO-15" value="" style="endArrow=classic;startArrow=classic;html=1;rounded=0;fontFamily=Helvetica;" edge="1" parent="1" source="ZFSTA58CFG1UwtmZaYwO-13" target="ZFSTA58CFG1UwtmZaYwO-4">
          <mxGeometry width="50" height="50" relative="1" as="geometry">
            <mxPoint x="560" y="630" as="sourcePoint" />
            <mxPoint x="610" y="580" as="targetPoint" />
          </mxGeometry>
        </mxCell>
      </root>
    </mxGraphModel>
  </diagram>
</mxfile>
